<svg viewBox="0 0 130 120" xmlns="http://www.w3.org/2000/svg">
  <!-- Background circle for contrast -->
  <circle cx="65" cy="60" r="50" fill="#E0E7FF" opacity="0.2" />

  <!-- Anvil base -->
  <path d="M20 75 L110 75 L105 85 L25 85 Z" fill="#4F46E5" />

  <!-- Anvil body -->
  <path d="M30 50 L100 50 L110 65 L105 75 L25 75 L20 65 Z" fill="#6366F1" />

  <!-- Anvil body highlight -->
  <path d="M32 52 L98 52 L108 63 L103 73 L27 73 L22 63 Z" fill="#8B5CF6" opacity="0.7" />

  <!-- Anvil horn -->
  <path d="M100 50 L115 40 L120 45 L110 55 L105 50 Z" fill="#4F46E5" />

  <!-- Hammer handle (simplified position) -->
  <rect x="68" y="15" width="6" height="35" fill="#92400E" rx="3" />

  <!-- Hammer handle grip -->
  <rect x="68.5" y="18" width="5" height="3" fill="#78350F" rx="1" />
  <rect x="68.5" y="23" width="5" height="3" fill="#78350F" rx="1" />
  <rect x="68.5" y="28" width="5" height="3" fill="#78350F" rx="1" />

  <!-- Hammer head -->
  <rect x="60" y="25" width="20" height="12" fill="#F59E0B" rx="2" />

  <!-- Hammer head detail -->
  <rect x="62" y="27" width="16" height="8" fill="#D97706" rx="1" />

  <!-- Hammer head highlight -->
  <rect x="62" y="27" width="14" height="3" fill="#FBBF24" rx="1" />

  <!-- Hammer claw -->
  <path d="M80 28 L88 22 L90 25 L84 33 L80 33 Z" fill="#F59E0B" />

  <!-- Prompt text blocks being forged -->
  <rect x="75" y="55" width="12" height="3" fill="#E5E7EB" rx="1" />
  <rect x="78" y="59" width="8" height="2" fill="#D1D5DB" rx="1" />
  <rect x="76" y="62" width="10" height="2" fill="#D1D5DB" rx="1" />

  <!-- Code brackets -->
  <text x="88" y="58" font-family="monospace" font-size="8" fill="#6366F1">{ }</text>

  <!-- Static sparks (no animation) -->
  <circle cx="85" cy="45" r="3" fill="#FCD34D" />
  <circle cx="78" cy="48" r="2" fill="#F59E0B" />
  <circle cx="90" cy="42" r="1.5" fill="#FBBF24" />
  <circle cx="80" cy="53" r="1" fill="#F59E0B" />
</svg>